<svg width="257" height="54" viewBox="0 0 257 54" fill="none" xmlns="http://www.w3.org/2000/svg">
<path d="M22.3512 36V10.1783H34.0816C36.8851 10.1783 39.3566 10.7194 41.4961 11.8014C43.6356 12.8589 45.3079 14.3467 46.5129 16.2649C47.7179 18.1831 48.3204 20.4578 48.3204 23.0892C48.3204 25.6959 47.7179 27.9707 46.5129 29.9135C45.3079 31.8316 43.6356 33.3318 41.4961 34.4138C39.3566 35.4713 36.8851 36 34.0816 36H22.3512ZM28.3271 31.0939H33.7865C35.5079 31.0939 36.9958 30.7742 38.25 30.1348C39.5287 29.4708 40.5124 28.5363 41.201 27.3313C41.9142 26.1263 42.2708 24.7122 42.2708 23.0892C42.2708 21.4415 41.9142 20.0275 41.201 18.847C40.5124 17.642 39.5287 16.7198 38.25 16.0804C36.9958 15.4165 35.5079 15.0845 33.7865 15.0845H28.3271V31.0939Z" fill="white"/>
<path d="M27.9383 44.7829V18.9612H16.2079C13.4044 18.9612 10.9329 19.5022 8.79338 20.5843C6.65387 21.6417 4.98161 23.1296 3.7766 25.0477C2.57159 26.9659 1.96908 29.2407 1.96908 31.872C1.96908 34.4788 2.57159 36.7535 3.7766 38.6963C4.98161 40.6145 6.65387 42.1146 8.79338 43.1967C10.9329 44.2541 13.4044 44.7829 16.2079 44.7829H27.9383ZM21.9624 39.8767H16.503C14.7815 39.8767 13.2937 39.557 12.0395 38.9176C10.7607 38.2537 9.77706 37.3192 9.08848 36.1142C8.37531 34.9091 8.01873 33.4951 8.01873 31.872C8.01873 30.2244 8.37531 28.8103 9.08848 27.6299C9.77706 26.4249 10.7607 25.5027 12.0395 24.8633C13.2937 24.1993 14.7815 23.8673 16.503 23.8673H21.9624V39.8767Z" fill="white"/>
<path d="M83.3021 27.7059C83.3021 29.9572 82.8691 31.8393 82.0032 33.3524C81.1465 34.8563 79.9023 35.991 78.2708 36.7567C76.6393 37.5132 74.6751 37.8914 72.3782 37.8914H66.7181V17.9031H72.9935C75.0898 17.9031 76.9082 18.2768 78.4485 19.0242C79.9889 19.7625 81.1829 20.8608 82.0306 22.3192C82.8782 23.7684 83.3021 25.5639 83.3021 27.7059ZM78.8997 27.8152C78.8997 26.3387 78.681 25.1264 78.2435 24.1785C77.8151 23.2215 77.1771 22.5151 76.3294 22.0594C75.4909 21.6037 74.4518 21.3758 73.2122 21.3758H70.9564V34.3914H72.7747C74.8437 34.3914 76.3795 33.84 77.3821 32.7371C78.3939 31.6343 78.8997 29.9936 78.8997 27.8152ZM93.3782 22.2918C95.429 22.2918 97.0013 22.7384 98.095 23.6317C99.1888 24.5249 99.7357 25.883 99.7357 27.7059V37.8914H96.8235L96.0169 35.8133H95.9075C95.47 36.3602 95.0234 36.8068 94.5677 37.1531C94.112 37.4995 93.5879 37.7547 92.9954 37.9188C92.403 38.0828 91.6829 38.1649 90.8353 38.1649C89.9329 38.1649 89.1217 37.9917 88.4017 37.6453C87.6907 37.299 87.1302 36.7703 86.72 36.0594C86.3099 35.3393 86.1048 34.4279 86.1048 33.325C86.1048 31.7026 86.6745 30.5086 87.8138 29.743C88.9531 28.9682 90.6621 28.5399 92.9407 28.4578L95.5931 28.3758V27.7059C95.5931 26.9038 95.3834 26.3159 94.9642 25.9422C94.5449 25.5685 93.9616 25.3817 93.2142 25.3817C92.4759 25.3817 91.7513 25.4865 91.0403 25.6961C90.3294 25.9057 89.6185 26.1701 88.9075 26.4891L87.5267 23.6727C88.3379 23.2443 89.2448 22.907 90.2474 22.6609C91.2591 22.4149 92.3027 22.2918 93.3782 22.2918ZM95.5931 30.8094L93.9798 30.8641C92.6308 30.9005 91.692 31.1421 91.1634 31.5887C90.6439 32.0353 90.3841 32.6232 90.3841 33.3524C90.3841 33.9904 90.5709 34.4461 90.9446 34.7195C91.3183 34.9839 91.806 35.116 92.4075 35.116C93.3008 35.116 94.0527 34.8517 94.6634 34.3231C95.2832 33.7944 95.5931 33.0425 95.5931 32.0672V30.8094ZM108.212 22.6063V37.8914H104.042V22.6063H108.212ZM106.134 16.618C106.754 16.618 107.287 16.7638 107.734 17.0555C108.18 17.338 108.404 17.8712 108.404 18.6551C108.404 19.4298 108.18 19.9676 107.734 20.2684C107.287 20.56 106.754 20.7059 106.134 20.7059C105.505 20.7059 104.967 20.56 104.521 20.2684C104.083 19.9676 103.865 19.4298 103.865 18.6551C103.865 17.8712 104.083 17.338 104.521 17.0555C104.967 16.7638 105.505 16.618 106.134 16.618ZM116.771 37.8914H112.601V16.618H116.771V37.8914ZM118.972 22.6063H123.538L126.423 31.2059C126.514 31.4793 126.592 31.7573 126.656 32.0399C126.719 32.3224 126.774 32.6141 126.82 32.9149C126.865 33.2156 126.902 33.5301 126.929 33.8582H127.011C127.066 33.366 127.139 32.9057 127.23 32.4774C127.33 32.049 127.453 31.6251 127.599 31.2059L130.429 22.6063H134.9L128.433 39.8465C128.041 40.9038 127.531 41.7833 126.902 42.4852C126.273 43.1961 125.548 43.7293 124.728 44.0848C123.917 44.4402 123.023 44.618 122.048 44.618C121.574 44.618 121.164 44.5906 120.818 44.5359C120.471 44.4904 120.175 44.4402 119.929 44.3856V41.077C120.12 41.1225 120.362 41.1636 120.654 41.2C120.945 41.2365 121.251 41.2547 121.57 41.2547C122.153 41.2547 122.654 41.1317 123.074 40.8856C123.493 40.6395 123.844 40.3068 124.126 39.8875C124.409 39.4774 124.632 39.0262 124.796 38.534L125.042 37.782L118.972 22.6063ZM151.087 17.9031C153.667 17.9031 155.549 18.4591 156.734 19.5711C157.919 20.674 158.511 22.1961 158.511 24.1375C158.511 25.0125 158.379 25.8511 158.115 26.6531C157.85 27.4461 157.417 28.1525 156.816 28.7723C156.223 29.3921 155.43 29.8843 154.437 30.2488C153.443 30.6043 152.217 30.782 150.759 30.782H148.941V37.8914H144.702V17.9031H151.087ZM150.868 21.3758H148.941V27.3094H150.335C151.128 27.3094 151.816 27.2046 152.4 26.9949C152.983 26.7853 153.434 26.4572 153.753 26.0106C154.072 25.5639 154.232 24.9897 154.232 24.2879C154.232 23.3035 153.958 22.5744 153.411 22.1004C152.865 21.6173 152.017 21.3758 150.868 21.3758ZM170.488 22.3192C170.697 22.3192 170.939 22.3328 171.212 22.3602C171.495 22.3784 171.723 22.4057 171.896 22.4422L171.581 26.3524C171.445 26.3068 171.249 26.2749 170.993 26.2567C170.747 26.2293 170.533 26.2156 170.351 26.2156C169.813 26.2156 169.289 26.284 168.779 26.4207C168.277 26.5574 167.826 26.7807 167.425 27.0906C167.024 27.3914 166.705 27.7925 166.468 28.2938C166.24 28.7859 166.126 29.3921 166.126 30.1121V37.8914H161.956V22.6063H165.115L165.73 25.1766H165.935C166.236 24.657 166.609 24.1831 167.056 23.7547C167.512 23.3172 168.027 22.9708 168.601 22.7156C169.184 22.4513 169.813 22.3192 170.488 22.3192ZM188.562 30.2215C188.562 31.4975 188.389 32.6277 188.042 33.6121C187.705 34.5965 187.208 35.4305 186.552 36.1141C185.905 36.7886 185.121 37.299 184.201 37.6453C183.289 37.9917 182.259 38.1649 181.111 38.1649C180.035 38.1649 179.046 37.9917 178.144 37.6453C177.251 37.299 176.471 36.7886 175.806 36.1141C175.15 35.4305 174.639 34.5965 174.275 33.6121C173.919 32.6277 173.742 31.4975 173.742 30.2215C173.742 28.5262 174.042 27.0906 174.644 25.9149C175.245 24.7391 176.102 23.8458 177.214 23.2352C178.326 22.6245 179.652 22.3192 181.193 22.3192C182.624 22.3192 183.891 22.6245 184.993 23.2352C186.105 23.8458 186.976 24.7391 187.605 25.9149C188.243 27.0906 188.562 28.5262 188.562 30.2215ZM177.993 30.2215C177.993 31.2241 178.103 32.0672 178.322 32.7508C178.54 33.4344 178.882 33.9494 179.347 34.2957C179.812 34.6421 180.418 34.8152 181.165 34.8152C181.904 34.8152 182.501 34.6421 182.956 34.2957C183.421 33.9494 183.758 33.4344 183.968 32.7508C184.187 32.0672 184.296 31.2241 184.296 30.2215C184.296 29.2098 184.187 28.3712 183.968 27.7059C183.758 27.0314 183.421 26.5255 182.956 26.1883C182.492 25.8511 181.885 25.6824 181.138 25.6824C180.035 25.6824 179.233 26.0607 178.732 26.8172C178.24 27.5737 177.993 28.7085 177.993 30.2215ZM190.777 44.618C190.303 44.618 189.811 44.5815 189.3 44.5086C188.79 44.4448 188.366 44.3673 188.029 44.2762V40.9949C188.366 41.0861 188.685 41.1499 188.986 41.1863C189.277 41.2319 189.61 41.2547 189.984 41.2547C190.549 41.2547 191.027 41.0952 191.419 40.7762C191.811 40.4663 192.007 39.8511 192.007 38.9305V22.6063H196.177V39.5457C196.177 40.4754 195.999 41.3231 195.644 42.0887C195.288 42.8634 194.714 43.4787 193.921 43.9344C193.128 44.3901 192.08 44.618 190.777 44.618ZM191.829 18.6551C191.829 17.8712 192.048 17.338 192.486 17.0555C192.932 16.7638 193.47 16.618 194.099 16.618C194.719 16.618 195.252 16.7638 195.699 17.0555C196.145 17.338 196.368 17.8712 196.368 18.6551C196.368 19.4298 196.145 19.9676 195.699 20.2684C195.252 20.56 194.719 20.7059 194.099 20.7059C193.47 20.7059 192.932 20.56 192.486 20.2684C192.048 19.9676 191.829 19.4298 191.829 18.6551ZM206.868 22.3192C208.281 22.3192 209.498 22.5926 210.519 23.1395C211.54 23.6772 212.328 24.4611 212.884 25.491C213.44 26.521 213.718 27.7788 213.718 29.2645V31.2879H203.861C203.906 32.4637 204.257 33.3888 204.913 34.0633C205.579 34.7287 206.499 35.0613 207.675 35.0613C208.65 35.0613 209.544 34.9611 210.355 34.7606C211.166 34.56 212 34.2593 212.857 33.8582V37.0848C212.1 37.4585 211.307 37.7319 210.478 37.9051C209.658 38.0783 208.659 38.1649 207.484 38.1649C205.952 38.1649 204.594 37.8823 203.409 37.3172C202.234 36.7521 201.309 35.8908 200.634 34.7332C199.969 33.5757 199.636 32.1173 199.636 30.3582C199.636 28.5718 199.937 27.0861 200.538 25.9012C201.149 24.7072 201.997 23.8139 203.081 23.2215C204.166 22.6199 205.428 22.3192 206.868 22.3192ZM206.896 25.2859C206.085 25.2859 205.41 25.5457 204.872 26.0652C204.344 26.5848 204.038 27.4005 203.956 28.5125H209.808C209.799 27.8927 209.685 27.3413 209.466 26.8582C209.256 26.3751 208.937 25.9923 208.509 25.7098C208.09 25.4272 207.552 25.2859 206.896 25.2859ZM223.316 38.1649C221.803 38.1649 220.513 37.8914 219.447 37.3445C218.38 36.7886 217.569 35.9318 217.013 34.7742C216.457 33.6167 216.179 32.1356 216.179 30.3309C216.179 28.4624 216.493 26.9402 217.122 25.7645C217.76 24.5796 218.64 23.7091 219.761 23.1531C220.891 22.5971 222.199 22.3192 223.685 22.3192C224.742 22.3192 225.654 22.424 226.419 22.6336C227.194 22.8341 227.868 23.0757 228.443 23.3582L227.212 26.5848C226.556 26.3205 225.945 26.1063 225.38 25.9422C224.815 25.769 224.25 25.6824 223.685 25.6824C222.956 25.6824 222.35 25.8556 221.867 26.202C221.383 26.5392 221.023 27.0496 220.786 27.7332C220.549 28.4168 220.431 29.2736 220.431 30.3035C220.431 31.3152 220.559 32.1538 220.814 32.8192C221.069 33.4845 221.438 33.9813 221.921 34.3094C222.404 34.6284 222.992 34.7879 223.685 34.7879C224.551 34.7879 225.321 34.674 225.995 34.4461C226.67 34.2091 227.326 33.881 227.964 33.4617V37.0301C227.326 37.4311 226.656 37.7182 225.954 37.8914C225.262 38.0737 224.382 38.1649 223.316 38.1649ZM237.958 34.8426C238.414 34.8426 238.856 34.797 239.284 34.7059C239.722 34.6147 240.155 34.5008 240.583 34.3641V37.4676C240.137 37.6681 239.581 37.8322 238.915 37.9598C238.259 38.0965 237.539 38.1649 236.755 38.1649C235.844 38.1649 235.023 38.019 234.294 37.7274C233.574 37.4266 233.005 36.9116 232.585 36.1824C232.175 35.4442 231.97 34.4188 231.97 33.1063V25.7371H229.974V23.9734L232.271 22.5789L233.474 19.3524H236.14V22.6063H240.419V25.7371H236.14V33.1063C236.14 33.6896 236.304 34.1271 236.632 34.4188C236.969 34.7013 237.411 34.8426 237.958 34.8426ZM254.351 33.3524C254.351 34.3914 254.105 35.271 253.613 35.991C253.13 36.702 252.405 37.2443 251.439 37.618C250.473 37.9826 249.27 38.1649 247.829 38.1649C246.763 38.1649 245.847 38.0965 245.081 37.9598C244.325 37.8231 243.559 37.5952 242.784 37.2762V33.8309C243.614 34.2046 244.503 34.5145 245.451 34.7606C246.408 34.9975 247.246 35.116 247.966 35.116C248.777 35.116 249.356 34.9975 249.702 34.7606C250.058 34.5145 250.236 34.1955 250.236 33.8035C250.236 33.5483 250.163 33.3205 250.017 33.1199C249.88 32.9103 249.579 32.6779 249.115 32.4227C248.65 32.1583 247.921 31.8165 246.927 31.3973C245.97 30.9962 245.182 30.5906 244.562 30.1805C243.951 29.7703 243.495 29.2873 243.195 28.7313C242.903 28.1662 242.757 27.4507 242.757 26.5848C242.757 25.172 243.304 24.1102 244.398 23.3992C245.501 22.6792 246.973 22.3192 248.814 22.3192C249.762 22.3192 250.664 22.4149 251.521 22.6063C252.387 22.7977 253.275 23.103 254.187 23.5223L252.929 26.5301C252.173 26.202 251.457 25.9331 250.783 25.7234C250.117 25.5138 249.438 25.409 248.745 25.409C248.135 25.409 247.674 25.491 247.365 25.6551C247.055 25.8192 246.9 26.0698 246.9 26.407C246.9 26.6531 246.977 26.8719 247.132 27.0633C247.296 27.2547 247.606 27.4689 248.062 27.7059C248.527 27.9337 249.206 28.23 250.099 28.5945C250.965 28.95 251.717 29.3237 252.355 29.7156C252.993 30.0984 253.485 30.577 253.831 31.1512C254.178 31.7163 254.351 32.45 254.351 33.3524Z" fill="white"/>
</svg>
