<svg width="333" height="27" viewBox="0 0 333 27" fill="none" xmlns="http://www.w3.org/2000/svg">
<path d="M11.3179 17V4.51391H16.9901C18.3458 4.51391 19.5409 4.77553 20.5754 5.29875C21.61 5.81009 22.4186 6.52952 23.0013 7.45706C23.584 8.3846 23.8753 9.48457 23.8753 10.757C23.8753 12.0175 23.584 13.1174 23.0013 14.0569C22.4186 14.9844 21.61 15.7098 20.5754 16.233C19.5409 16.7443 18.3458 17 16.9901 17H11.3179ZM14.2075 14.6276H16.8474C17.6799 14.6276 18.3993 14.4731 19.0058 14.1639C19.6241 13.8428 20.0998 13.3909 20.4327 12.8082C20.7776 12.2256 20.95 11.5418 20.95 10.757C20.95 9.96023 20.7776 9.27646 20.4327 8.70567C20.0998 8.12299 19.6241 7.67706 19.0058 7.36788C18.3993 7.04681 17.6799 6.88627 16.8474 6.88627H14.2075V14.6276Z" fill="white"/>
<path d="M14.0195 21.247V8.76089H8.34726C6.99162 8.76089 5.79653 9.02251 4.76197 9.54573C3.7274 10.0571 2.91878 10.7765 2.3361 11.704C1.75341 12.6316 1.46207 13.7315 1.46207 15.0039C1.46207 16.2644 1.75341 17.3644 2.3361 18.3038C2.91878 19.2314 3.7274 19.9567 4.76197 20.48C5.79653 20.9913 6.99162 21.247 8.34726 21.247H14.0195ZM11.1299 18.8746H8.48995C7.65755 18.8746 6.93811 18.72 6.33165 18.4109C5.71329 18.0898 5.23763 17.6379 4.90466 17.0552C4.55981 16.4725 4.38738 15.7888 4.38738 15.0039C4.38738 14.2072 4.55981 13.5234 4.90466 12.9526C5.23763 12.37 5.71329 11.924 6.33165 11.6149C6.93811 11.2938 7.65755 11.1332 8.48995 11.1332H11.1299V18.8746Z" fill="white"/>
<path d="M40.8007 13.1982C40.8007 14.2869 40.5913 15.197 40.1726 15.9286C39.7584 16.6558 39.1568 17.2045 38.3678 17.5748C37.5789 17.9406 36.6291 18.1235 35.5185 18.1235H32.7815V8.45812H35.816C36.8297 8.45812 37.7089 8.63882 38.4538 9.00023C39.1986 9.35722 39.776 9.88831 40.1859 10.5935C40.5958 11.2943 40.8007 12.1625 40.8007 13.1982ZM38.6719 13.2511C38.6719 12.5371 38.5662 11.951 38.3546 11.4926C38.1475 11.0298 37.8389 10.6882 37.4291 10.4679C37.0236 10.2475 36.5211 10.1373 35.9217 10.1373H34.8309V16.431H35.7102C36.7107 16.431 37.4533 16.1644 37.9381 15.6311C38.4273 15.0978 38.6719 14.3045 38.6719 13.2511ZM45.673 10.5803C46.6647 10.5803 47.425 10.7962 47.9539 11.2282C48.4827 11.6601 48.7472 12.3168 48.7472 13.1982V18.1235H47.339L46.949 17.1186H46.8961C46.6845 17.383 46.4686 17.599 46.2482 17.7665C46.0278 17.934 45.7744 18.0574 45.4879 18.1367C45.2015 18.216 44.8533 18.2557 44.4434 18.2557C44.0071 18.2557 43.6148 18.172 43.2666 18.0045C42.9228 17.837 42.6518 17.5814 42.4535 17.2376C42.2551 16.8894 42.156 16.4487 42.156 15.9154C42.156 15.1309 42.4314 14.5535 42.9823 14.1833C43.5333 13.8087 44.3596 13.6015 45.4615 13.5619L46.744 13.5222V13.1982C46.744 12.8104 46.6427 12.5261 46.4399 12.3454C46.2372 12.1647 45.9551 12.0744 45.5937 12.0744C45.2367 12.0744 44.8863 12.125 44.5426 12.2264C44.1988 12.3278 43.855 12.4556 43.5112 12.6099L42.8435 11.248C43.2358 11.0408 43.6743 10.8778 44.1591 10.7588C44.6483 10.6398 45.153 10.5803 45.673 10.5803ZM46.744 14.699L45.9639 14.7254C45.3116 14.743 44.8577 14.8598 44.6021 15.0758C44.3508 15.2917 44.2252 15.576 44.2252 15.9286C44.2252 16.2371 44.3156 16.4575 44.4963 16.5897C44.677 16.7175 44.9128 16.7814 45.2037 16.7814C45.6356 16.7814 45.9992 16.6536 46.2945 16.398C46.5942 16.1424 46.744 15.7788 46.744 15.3072V14.699ZM52.846 10.7323V18.1235H50.8297V10.7323H52.846ZM51.8412 7.83668C52.1409 7.83668 52.3987 7.9072 52.6146 8.04824C52.8306 8.18486 52.9386 8.4427 52.9386 8.82173C52.9386 9.19635 52.8306 9.45639 52.6146 9.60183C52.3987 9.74287 52.1409 9.81339 51.8412 9.81339C51.537 9.81339 51.277 9.74287 51.061 9.60183C50.8495 9.45639 50.7437 9.19635 50.7437 8.82173C50.7437 8.4427 50.8495 8.18486 51.061 8.04824C51.277 7.9072 51.537 7.83668 51.8412 7.83668ZM56.9845 18.1235H54.9682V7.83668H56.9845V18.1235ZM58.0489 10.7323H60.257L61.6519 14.8907C61.696 15.0229 61.7335 15.1573 61.7643 15.2939C61.7952 15.4306 61.8216 15.5716 61.8437 15.7171C61.8657 15.8625 61.8833 16.0145 61.8966 16.1732H61.9362C61.9627 15.9352 61.9979 15.7126 62.042 15.5055C62.0905 15.2984 62.15 15.0934 62.2205 14.8907L63.589 10.7323H65.7508L62.6238 19.0689C62.4343 19.5801 62.1874 20.0054 61.8833 20.3448C61.5792 20.6886 61.2288 20.9464 60.8322 21.1183C60.4399 21.2902 60.008 21.3761 59.5364 21.3761C59.3072 21.3761 59.1089 21.3629 58.9414 21.3364C58.7739 21.3144 58.6307 21.2902 58.5117 21.2637V19.6638C58.6043 19.6859 58.721 19.7057 58.8621 19.7233C59.0031 19.741 59.1508 19.7498 59.305 19.7498C59.5871 19.7498 59.8295 19.6903 60.0322 19.5713C60.235 19.4523 60.4047 19.2914 60.5413 19.0887C60.6779 18.8904 60.7859 18.6722 60.8652 18.4342L60.9842 18.0706L58.0489 10.7323ZM73.5783 8.45812C74.8256 8.45812 75.7357 8.72697 76.3086 9.26467C76.8816 9.79796 77.1681 10.534 77.1681 11.4728C77.1681 11.8959 77.1042 12.3013 76.9764 12.6892C76.8485 13.0726 76.6392 13.4142 76.3483 13.7139C76.0618 14.0136 75.6784 14.2516 75.198 14.4279C74.7176 14.5998 74.1248 14.6857 73.4196 14.6857H72.5403V18.1235H70.4909V8.45812H73.5783ZM73.4725 10.1373H72.5403V13.0065H73.2147C73.5981 13.0065 73.9309 12.9558 74.2129 12.8545C74.495 12.7531 74.7132 12.5944 74.8674 12.3785C75.0217 12.1625 75.0988 11.8848 75.0988 11.5455C75.0988 11.0695 74.9666 10.7169 74.7022 10.4877C74.4377 10.2541 74.0278 10.1373 73.4725 10.1373ZM82.9594 10.5935C83.0607 10.5935 83.1775 10.6001 83.3097 10.6133C83.4464 10.6221 83.5566 10.6354 83.6403 10.653L83.4882 12.5437C83.4221 12.5217 83.3274 12.5063 83.204 12.4975C83.085 12.4842 82.9814 12.4776 82.8932 12.4776C82.6332 12.4776 82.3798 12.5107 82.133 12.5768C81.8906 12.6429 81.6724 12.7509 81.4785 12.9007C81.2846 13.0462 81.1303 13.2401 81.0157 13.4825C80.9055 13.7205 80.8504 14.0136 80.8504 14.3618V18.1235H78.8341V10.7323H80.3612L80.6587 11.9752H80.7579C80.9033 11.724 81.084 11.4948 81.3 11.2876C81.5204 11.0761 81.7694 10.9086 82.047 10.7852C82.3291 10.6574 82.6332 10.5935 82.9594 10.5935ZM91.6992 14.4147C91.6992 15.0317 91.6154 15.5782 91.4479 16.0542C91.2849 16.5302 91.0447 16.9335 90.7273 17.264C90.4144 17.5902 90.0354 17.837 89.5902 18.0045C89.1495 18.172 88.6515 18.2557 88.0961 18.2557C87.5761 18.2557 87.0979 18.172 86.6615 18.0045C86.2296 17.837 85.8528 17.5902 85.5311 17.264C85.2137 16.9335 84.9669 16.5302 84.7906 16.0542C84.6187 15.5782 84.5328 15.0317 84.5328 14.4147C84.5328 13.5949 84.6782 12.9007 84.9691 12.3322C85.26 11.7636 85.6743 11.3317 86.212 11.0364C86.7497 10.7411 87.391 10.5935 88.1358 10.5935C88.8278 10.5935 89.4404 10.7411 89.9737 11.0364C90.5114 11.3317 90.9323 11.7636 91.2364 12.3322C91.5449 12.9007 91.6992 13.5949 91.6992 14.4147ZM86.5888 14.4147C86.5888 14.8995 86.6417 15.3072 86.7475 15.6377C86.8533 15.9683 87.0185 16.2173 87.2433 16.3848C87.4681 16.5522 87.7612 16.636 88.1226 16.636C88.4796 16.636 88.7683 16.5522 88.9886 16.3848C89.2134 16.2173 89.3765 15.9683 89.4778 15.6377C89.5836 15.3072 89.6365 14.8995 89.6365 14.4147C89.6365 13.9255 89.5836 13.52 89.4778 13.1982C89.3765 12.8721 89.2134 12.6275 88.9886 12.4644C88.7639 12.3013 88.4708 12.2198 88.1094 12.2198C87.5761 12.2198 87.1882 12.4027 86.9458 12.7685C86.7078 13.1343 86.5888 13.6831 86.5888 14.4147ZM92.7702 21.3761C92.541 21.3761 92.303 21.3585 92.0562 21.3232C91.8093 21.2924 91.6044 21.2549 91.4413 21.2108V19.6242C91.6044 19.6683 91.7587 19.6991 91.9041 19.7167C92.0451 19.7388 92.206 19.7498 92.3867 19.7498C92.66 19.7498 92.8914 19.6727 93.0809 19.5184C93.2704 19.3686 93.3651 19.0711 93.3651 18.6259V10.7323H95.3815V18.9234C95.3815 19.373 95.2956 19.7828 95.1237 20.1531C94.9518 20.5277 94.6741 20.8252 94.2907 21.0456C93.9073 21.2659 93.4004 21.3761 92.7702 21.3761ZM93.2792 8.82173C93.2792 8.4427 93.385 8.18486 93.5965 8.04824C93.8125 7.9072 94.0725 7.83668 94.3766 7.83668C94.6763 7.83668 94.9342 7.9072 95.1501 8.04824C95.3661 8.18486 95.4741 8.4427 95.4741 8.82173C95.4741 9.19635 95.3661 9.45639 95.1501 9.60183C94.9342 9.74287 94.6763 9.81339 94.3766 9.81339C94.0725 9.81339 93.8125 9.74287 93.5965 9.60183C93.385 9.45639 93.2792 9.19635 93.2792 8.82173ZM100.551 10.5935C101.234 10.5935 101.823 10.7257 102.317 10.9902C102.81 11.2502 103.191 11.6292 103.46 12.1273C103.729 12.6253 103.863 13.2335 103.863 13.9519V14.9303H99.0969C99.119 15.4989 99.2886 15.9462 99.606 16.2724C99.9277 16.5941 100.373 16.755 100.941 16.755C101.413 16.755 101.845 16.7065 102.237 16.6095C102.629 16.5126 103.033 16.3671 103.447 16.1732V17.7334C103.081 17.9141 102.698 18.0463 102.297 18.1301C101.9 18.2138 101.417 18.2557 100.849 18.2557C100.108 18.2557 99.4517 18.1191 98.8788 17.8458C98.3102 17.5726 97.8629 17.1561 97.5367 16.5963C97.215 16.0366 97.0541 15.3314 97.0541 14.4808C97.0541 13.6169 97.1996 12.8985 97.4904 12.3256C97.7857 11.7482 98.1956 11.3163 98.7201 11.0298C99.2446 10.7389 99.855 10.5935 100.551 10.5935ZM100.565 12.0281C100.172 12.0281 99.8462 12.1537 99.5861 12.4049C99.3305 12.6561 99.1829 13.0506 99.1432 13.5883H101.973C101.968 13.2886 101.913 13.0219 101.807 12.7884C101.706 12.5548 101.552 12.3697 101.345 12.233C101.142 12.0964 100.882 12.0281 100.565 12.0281ZM108.504 18.2557C107.773 18.2557 107.149 18.1235 106.634 17.859C106.118 17.5902 105.726 17.1759 105.457 16.6162C105.188 16.0564 105.053 15.3402 105.053 14.4676C105.053 13.5641 105.206 12.828 105.51 12.2595C105.818 11.6865 106.243 11.2656 106.786 10.9968C107.332 10.7279 107.965 10.5935 108.683 10.5935C109.194 10.5935 109.635 10.6442 110.005 10.7455C110.38 10.8425 110.706 10.9593 110.984 11.0959L110.389 12.6561C110.071 12.5283 109.776 12.4248 109.503 12.3454C109.229 12.2617 108.956 12.2198 108.683 12.2198C108.33 12.2198 108.037 12.3035 107.804 12.471C107.57 12.6341 107.396 12.8809 107.281 13.2115C107.167 13.542 107.11 13.9563 107.11 14.4543C107.11 14.9436 107.171 15.349 107.295 15.6708C107.418 15.9925 107.597 16.2327 107.83 16.3914C108.064 16.5456 108.348 16.6228 108.683 16.6228C109.102 16.6228 109.474 16.5677 109.8 16.4575C110.126 16.3429 110.444 16.1842 110.752 15.9815V17.707C110.444 17.9009 110.12 18.0397 109.78 18.1235C109.445 18.2116 109.02 18.2557 108.504 18.2557ZM115.585 16.6492C115.805 16.6492 116.019 16.6272 116.226 16.5831C116.438 16.539 116.647 16.4839 116.854 16.4178V17.9185C116.638 18.0155 116.369 18.0948 116.048 18.1565C115.73 18.2226 115.382 18.2557 115.003 18.2557C114.562 18.2557 114.166 18.1852 113.813 18.0441C113.465 17.8987 113.189 17.6497 112.987 17.2971C112.788 16.9401 112.689 16.4443 112.689 15.8096V12.2463H111.724V11.3934L112.835 10.7191L113.416 9.15889H114.706V10.7323H116.775V12.2463H114.706V15.8096C114.706 16.0917 114.785 16.3032 114.944 16.4443C115.107 16.5809 115.32 16.6492 115.585 16.6492ZM123.512 15.9286C123.512 16.431 123.393 16.8564 123.155 17.2045C122.921 17.5483 122.571 17.8106 122.103 17.9913C121.636 18.1675 121.054 18.2557 120.358 18.2557C119.842 18.2557 119.399 18.2226 119.029 18.1565C118.663 18.0904 118.293 17.9802 117.919 17.826V16.16C118.32 16.3407 118.749 16.4905 119.208 16.6095C119.671 16.7241 120.076 16.7814 120.424 16.7814C120.816 16.7814 121.096 16.7241 121.264 16.6095C121.436 16.4905 121.522 16.3363 121.522 16.1468C121.522 16.0234 121.486 15.9132 121.416 15.8162C121.35 15.7148 121.204 15.6025 120.979 15.4791C120.755 15.3512 120.402 15.186 119.922 14.9832C119.459 14.7893 119.078 14.5932 118.778 14.3948C118.483 14.1965 118.262 13.9629 118.117 13.6941C117.976 13.4208 117.905 13.0748 117.905 12.6561C117.905 11.973 118.17 11.4595 118.699 11.1158C119.232 10.7676 119.944 10.5935 120.834 10.5935C121.292 10.5935 121.729 10.6398 122.143 10.7323C122.562 10.8249 122.991 10.9725 123.432 11.1753L122.824 12.6297C122.458 12.471 122.112 12.341 121.786 12.2396C121.464 12.1383 121.136 12.0876 120.801 12.0876C120.506 12.0876 120.283 12.1273 120.133 12.2066C119.983 12.2859 119.909 12.4071 119.909 12.5702C119.909 12.6892 119.946 12.795 120.021 12.8875C120.1 12.9801 120.25 13.0837 120.47 13.1982C120.695 13.3084 121.024 13.4517 121.455 13.628C121.874 13.7998 122.238 13.9806 122.546 14.1701C122.855 14.3552 123.093 14.5866 123.26 14.8642C123.428 15.1375 123.512 15.4923 123.512 15.9286Z" fill="white"/>
<rect x="303.565" width="29" height="24" rx="4" fill="white"/>
<path d="M310.565 7H325.565V8.66667H310.565V7ZM310.565 11.1667H325.565V12.8333H310.565V11.1667ZM310.565 15.3333H325.565V17H310.565V15.3333Z" fill="#4F52E5"/>
</svg>
