<svg width="575" height="426" viewBox="0 0 575 426" fill="none" xmlns="http://www.w3.org/2000/svg">
<g clip-path="url(#clip0_56_1129)">
<path d="M90.2448 39.1527C208.258 -58.3543 262.477 54.2035 341.48 76.6505C420.483 99.0974 489.071 68.3104 518.881 177.778C548.692 287.245 402.587 414.893 244.529 389.588C86.4716 364.284 -18.5684 129.083 90.2448 39.1527Z" fill="#EBF3FF"/>
<path d="M338.805 28.0199C330.536 14.2233 300.467 15.0896 296.616 32.4937C292.766 49.8978 272.634 51.8891 274.753 63.3324C276.872 74.7757 259.247 65.815 257.36 83.0898C255.474 100.365 292.753 133.104 331.582 112.829C370.412 92.5547 341.093 75.6549 344.323 65.2719C347.553 54.8889 351.817 47.6739 347.256 43.2905C342.695 38.9071 348.69 29.8818 338.805 28.0199Z" fill="#4A0945"/>
<path d="M343.858 376.619V376.722C343.853 376.688 343.853 376.653 343.858 376.619Z" fill="#2B022B"/>
<path d="M383.01 389.627L373.771 400.618L341.209 395.446C342.139 387.688 343.651 377.874 343.793 376.788V376.684H368.486C368.486 376.684 375.063 382.36 383.01 389.627Z" fill="#FF94A9"/>
<path d="M411.412 419.263C410.055 423 375.761 414.414 365.45 412.307C355.138 410.199 340.653 408.829 340.472 403.98C340.564 401.102 340.81 398.232 341.209 395.381L373.771 400.553L383.01 389.562C395.777 401.303 412.265 416.91 411.412 419.263Z" fill="#2B022B"/>
<path d="M326.969 350.345L312.678 351.741L293.076 325.209C299.162 320.321 307.096 314.347 307.974 313.701H308.078L325.729 330.976C325.729 330.976 326.439 339.587 326.969 350.345Z" fill="#FF94A9"/>
<path d="M326.556 391.412C322.976 393.118 304.46 362.965 298.567 354.276C292.675 345.587 283.242 334.389 286.537 330.833C288.619 328.847 290.801 326.97 293.076 325.209L312.678 351.742L326.969 350.345C327.938 367.633 328.765 390.364 326.556 391.412Z" fill="#2B022B"/>
<path d="M341.416 156.663C341.416 156.663 388.463 227.34 392.107 239.934C395.751 252.528 327.499 337.402 327.499 337.402C327.499 337.402 300.997 320.166 302.328 316.183C303.658 312.201 350.293 241.731 350.293 241.731C350.293 241.731 302.922 179.924 306.437 169.658C309.951 159.391 324.708 148.737 324.708 148.737" fill="#2B022B"/>
<path d="M274.753 163.335C267.788 212.884 299.717 247.381 324.333 278.867C329.088 328.596 341.015 385.955 342.01 384.959C343.005 383.964 371.82 380.977 370.825 377.667C369.83 374.357 364.868 270.578 361.883 262.29C358.899 254.002 316.826 158.693 316.826 158.693L284.186 167.201" fill="#4A0945"/>
<path d="M397.793 167.046C398.736 155.512 399.485 148.944 395.092 154.866C392.553 158.169 390.695 161.945 389.626 165.973" fill="#FF94A9"/>
<path d="M295.234 170.692L296.72 149.862L297.314 141.573L297.999 131.94L298.593 123.665L299.278 114.019L299.873 105.744L300.532 96.576L302.961 76.0815L324.307 77.3746L336.376 94.1839C336.376 94.1839 336.919 97.2354 337.746 102.084C338.146 104.412 338.612 107.166 339.116 110.179C339.619 113.191 340.123 116.282 340.653 119.605C341.08 122.191 341.506 124.958 341.945 127.699C342.436 130.841 342.914 134.022 343.367 137.138C343.767 139.918 344.142 142.646 344.491 145.245C345.124 150.043 345.641 154.426 345.951 157.969C347.566 177.325 325.044 170.188 295.234 170.692Z" fill="white"/>
<path d="M344.53 145.284L296.72 149.862L297.314 141.573L343.341 137.177C343.741 139.957 344.116 142.685 344.53 145.284Z" fill="#EAEAEA"/>
<path d="M341.945 127.738L298.012 131.94L298.606 123.665L340.653 119.644C341.08 122.268 341.506 124.997 341.945 127.738Z" fill="#EAEAEA"/>
<path d="M339.115 110.217L299.304 114.019L299.898 105.744L337.772 102.123C338.146 104.45 338.612 107.205 339.115 110.217Z" fill="#EAEAEA"/>
<path d="M394.058 149.952L377.376 160.749L355.81 128.048C360.255 120.381 367.44 115.041 372.608 111.976C381.408 127.273 394.058 149.952 394.058 149.952Z" fill="#FF94A9"/>
<path d="M372.621 111.976C367.453 115.04 360.255 120.381 355.823 128.048L350.926 120.626C351.236 121.131 353.136 125.035 349.311 138.25C345.163 152.551 352.128 170.576 351.624 170.291C344.68 163.578 339.847 154.98 337.72 145.556C334.399 130.505 327.499 83.4906 321.917 75.7324C347.075 79.146 361.483 94.6882 364.713 98.8646C365.682 100.119 368.784 105.291 372.621 111.976Z" fill="#4CA1FF"/>
<path d="M271.845 140.28C271.845 140.28 256.688 119.734 262.658 99.8344C268.628 79.9347 301.694 75.6936 301.694 75.6936C308.458 93.8584 311.354 113.237 310.197 132.587C308.207 164.499 297.107 201.789 293.799 200.807C290.491 199.824 264.015 191.756 261.263 180.364C262.49 172.942 274.572 148.905 271.845 140.28Z" fill="#4CA1FF"/>
<path d="M354.673 177.028L373.901 134.022C374.183 133.505 374.616 133.085 375.142 132.82C375.668 132.554 376.263 132.455 376.847 132.535L402.69 136.104C403.879 136.272 406.127 138.819 405.675 139.815L384.819 181.192C384.534 181.71 384.099 182.13 383.571 182.398C383.043 182.665 382.447 182.768 381.86 182.691L356.792 181.036C355.578 180.868 354.234 178.011 354.673 177.028Z" fill="#90A6FF"/>
<path d="M357.516 181.282L383.359 184.864C383.946 184.94 384.542 184.838 385.07 184.57C385.597 184.303 386.033 183.882 386.318 183.364L405.533 140.371C405.985 139.375 405.378 138.444 404.241 138.276L378.397 134.707C377.813 134.627 377.219 134.727 376.693 134.992C376.167 135.258 375.734 135.677 375.451 136.194L356.159 179.2C356.057 179.426 356.014 179.674 356.032 179.921C356.051 180.168 356.132 180.406 356.267 180.613C356.403 180.821 356.588 180.991 356.806 181.108C357.024 181.225 357.268 181.285 357.516 181.282Z" fill="#C7DDFF"/>
<path d="M395.622 149.926C396.234 150.006 396.856 149.899 397.407 149.62C397.958 149.341 398.412 148.902 398.71 148.362L400.933 143.383C401.042 143.148 401.089 142.889 401.071 142.63C401.053 142.371 400.97 142.121 400.83 141.903C400.689 141.685 400.496 141.506 400.267 141.383C400.039 141.259 399.783 141.196 399.524 141.198C398.914 141.118 398.293 141.224 397.744 141.503C397.195 141.783 396.744 142.222 396.449 142.763L394.213 147.741C394.104 147.976 394.057 148.236 394.075 148.494C394.093 148.753 394.176 149.003 394.317 149.221C394.457 149.44 394.65 149.619 394.879 149.742C395.107 149.865 395.363 149.928 395.622 149.926Z" fill="#4A0945"/>
<path d="M271.845 140.28C277.57 129.677 291.641 127.854 291.641 127.854L301.694 151.219L347.476 159.171C347.476 159.171 352.27 155.758 355.229 155.383C358.188 155.008 366.354 150.043 368.409 151.167C370.463 152.292 362.374 159.87 362.374 159.87C365.269 160.46 368.194 160.892 371.135 161.163C376.304 161.654 382.765 159.171 382.132 162.275C381.499 165.378 373.81 175.451 366.975 175.825C360.139 176.2 347.114 172.774 347.114 172.774L296.242 171.869C293.922 171.836 291.654 171.178 289.676 169.966C287.698 168.753 286.083 167.03 285 164.977L271.845 140.28Z" fill="#FF94A9"/>
<path d="M291.641 127.854L284.186 107.127" stroke="#0063BC" stroke-width="1.08" stroke-linecap="round" stroke-linejoin="round"/>
<path d="M350.913 120.626C343.16 108.705 342.087 99.0068 342.087 99.0068" stroke="#0063BC" stroke-width="1.08" stroke-linecap="round" stroke-linejoin="round"/>
<path d="M388.114 179.278C381.731 178.45 383.747 170.369 383.747 166.348C383.747 162.326 383.837 158.589 385.982 158.396C388.127 158.202 394.679 162.869 396.668 162.701C398.658 162.533 399.873 171.74 388.114 179.278Z" fill="#FF94A9"/>
<path d="M324.333 68.8407C323.816 71.5819 323.403 74.543 323.041 77.0126C322.963 77.5945 322.886 78.1505 322.808 78.6677C322.667 79.8226 322.451 80.9672 322.162 82.0942C321.62 83.7622 317.381 87.1629 311.554 84.5898C305.726 82.0166 301.785 79.1073 301.694 75.6937C303.458 70.0639 304.886 64.3343 305.971 58.5353C306.075 57.8371 306.152 57.1776 306.217 56.557C306.282 55.9363 306.295 55.445 306.295 54.9666L307.587 56.001L308.414 56.6345L324.333 68.8407Z" fill="#FF94A9"/>
<path d="M324.333 68.8406C323.816 71.5818 323.403 74.5429 323.041 77.0125C322.963 77.5944 322.886 78.1504 322.808 78.6676C310.481 81.564 306.01 72.4094 306.01 58.5352C306.01 57.8887 306.01 57.2422 306.01 56.5569H306.23L308.465 56.6345L324.333 68.8406Z" fill="#D9568E"/>
<path d="M338.805 38.1572C326.969 48.6307 310.171 43.6655 310.171 43.6655C310.171 43.6655 309.977 54.3459 308.53 55.4062C307.083 56.4665 308.31 46.6265 302.069 47.648C295.828 48.6695 299.304 60.0352 305.765 58.4577C305.765 58.4577 310.055 74.5559 323.958 73.9094C337.862 73.2628 338.133 58.3155 338.805 38.1572Z" fill="#FF94A9"/>
<path d="M324.54 65.8021C324.504 66.2088 324.389 66.6045 324.201 66.9665C324.012 67.3286 323.754 67.65 323.442 67.9123C323.129 68.1747 322.768 68.3729 322.379 68.4956C321.99 68.6182 321.58 68.663 321.174 68.6274C320.767 68.5917 320.372 68.4763 320.01 68.2877C319.648 68.0992 319.327 67.8411 319.065 67.5283C318.803 67.2156 318.605 66.8542 318.482 66.4648C318.36 66.0754 318.315 65.6657 318.35 65.259L324.54 65.8021Z" fill="white"/>
<path d="M303.387 55.8069C306.165 55.8069 304.976 50.4926 302.095 51.333" stroke="#D9568E" stroke-width="0.54" stroke-linecap="round" stroke-linejoin="round"/>
<path d="M325.961 52.5098C326.078 52.7296 327.667 56.0656 328.83 58.4965C328.969 58.7895 329.037 59.1114 329.029 59.4357C329.02 59.7601 328.934 60.0778 328.779 60.3629C328.624 60.6479 328.404 60.8922 328.137 61.0757C327.869 61.2592 327.562 61.3768 327.241 61.4187L323.584 61.8713" stroke="#D9568E" stroke-width="0.54" stroke-linecap="round" stroke-linejoin="round"/>
<path d="M317.73 55.6131C317.679 55.8619 317.702 56.1205 317.796 56.3564C317.89 56.5924 318.052 56.7952 318.261 56.9396C318.47 57.084 318.717 57.1636 318.971 57.1683C319.225 57.1731 319.475 57.1029 319.689 56.9664C319.903 56.83 320.073 56.6333 320.176 56.4011C320.279 56.1689 320.312 55.9114 320.27 55.6607C320.227 55.4101 320.112 55.1775 319.939 54.9919C319.765 54.8064 319.541 54.6761 319.294 54.6174C319.126 54.5775 318.951 54.5718 318.781 54.6005C318.61 54.6292 318.448 54.6918 318.302 54.7847C318.156 54.8775 318.03 54.9986 317.932 55.1409C317.834 55.2832 317.765 55.4438 317.73 55.6131Z" fill="#4A0945"/>
<path d="M332.06 54.3718C331.985 54.7147 332.049 55.0735 332.238 55.3694C332.427 55.6652 332.725 55.8738 333.068 55.9492C333.411 56.0247 333.769 55.9608 334.065 55.7717C334.361 55.5825 334.569 55.2836 334.645 54.9407C334.682 54.7709 334.685 54.5954 334.655 54.4242C334.625 54.253 334.561 54.0895 334.467 53.9431C334.374 53.7966 334.252 53.67 334.11 53.5705C333.967 53.471 333.806 53.4006 333.637 53.3632C333.467 53.3258 333.292 53.3223 333.121 53.3528C332.949 53.3832 332.786 53.4471 332.64 53.5408C332.493 53.6344 332.367 53.756 332.267 53.8986C332.168 54.0412 332.098 54.202 332.06 54.3718Z" fill="#4A0945"/>
<path d="M321.439 50.9839C321.439 50.9839 318.144 49.0573 315.882 51.7855" stroke="#4A0945" stroke-width="0.54" stroke-miterlimit="10" stroke-linecap="round"/>
<path d="M335.64 50.3892C335.64 50.3892 332.345 48.4756 330.083 51.1909" stroke="#4A0945" stroke-width="0.54" stroke-miterlimit="10" stroke-linecap="round"/>
<path d="M137.435 358.323C137.435 358.323 143.96 411.337 145.937 412.63C147.914 413.923 174.184 356.241 172.439 354.315C170.695 352.388 157.166 340.828 157.166 340.828" fill="#8136FF"/>
<path d="M125.624 373.219C125.624 373.219 108.826 423.931 110.002 425.922C111.178 427.914 159.699 387.132 158.949 384.649C158.2 382.166 151.002 365.913 151.002 365.913" fill="#A275FF"/>
<path d="M151.351 187.333C151.351 187.333 126.335 244.938 123.634 256.342C120.934 267.747 144.438 355.31 144.438 355.31L162.838 345.858L158.2 260.519L186.537 193.889" fill="#2B022B"/>
<path d="M183.513 196.139C183.513 196.139 111.488 247.226 102.21 257.506C92.9325 267.785 125.624 373.219 125.624 373.219C125.624 373.219 151.997 366.585 151.002 365.913C150.007 365.241 138.494 277.134 138.494 277.134C138.494 277.134 206.242 249.554 215.856 232.318C221.619 221.952 224.801 210.349 225.134 198.492" fill="#4A0945"/>
<path d="M159.375 144.34C151.842 152.693 141.944 163.606 141.182 164.227C139.89 165.223 107.392 167.628 107.392 167.628L108.413 150.056L131.245 146.176C131.245 146.176 137.202 137.306 144.89 127.208C153.38 131.992 157.657 140.203 159.375 144.34Z" fill="#D9568E"/>
<path d="M240.045 172.683C238.572 173.968 237.052 175.166 235.484 176.278L234.024 180.067C233.455 181.554 232.732 183.377 232.047 185.329C231.091 187.915 230.07 190.695 229.165 193.307C227.918 196.495 226.958 199.788 226.297 203.147C226.038 207.117 209.499 208.487 191.628 204.013C173.757 199.54 148.767 187.721 148.987 184.864C149.18 182.601 154.155 175.955 157.037 171.041C157.605 170.097 158.083 169.218 158.445 168.455C158.576 168.186 158.693 167.91 158.794 167.628C159.246 166.464 160.086 163.749 161.042 160.309C161.546 158.486 162.115 156.43 162.671 154.413C163.433 151.62 164.221 148.724 164.932 146.047C166.521 140.099 167.787 135.199 167.865 134.901L159.388 144.314C159.259 143.991 159.117 143.655 158.949 143.293C156.985 138.923 152.747 131.656 144.903 127.195C153.858 115.467 165.177 102.11 172.258 99.162C185.426 93.6925 216.114 100.662 216.114 100.662L220.844 101.153C220.844 101.153 247.669 106.959 256.947 122.204C265.436 136.22 256.016 158.783 240.045 172.683Z" fill="#A275FF"/>
<path d="M232.111 185.329C231.155 187.915 230.134 190.695 229.23 193.307C209.343 189.428 180.993 180.868 158.536 168.455C158.667 168.186 158.783 167.91 158.884 167.628C159.337 166.464 160.177 163.749 161.133 160.309C183.746 173.214 212.974 181.786 232.111 185.329Z" fill="#C1B0FF"/>
<path d="M240.045 172.683C238.572 173.968 237.052 175.166 235.484 176.278L234.024 180.067C213.646 176.019 184.922 167.136 162.696 154.413C163.459 151.62 164.247 148.724 164.958 146.047C188.682 160.102 220.482 169.257 240.045 172.683Z" fill="#C1B0FF"/>
<path d="M103.076 164.343C106.552 160.154 106.113 153.12 110.829 156.249C115.545 159.378 113.026 168.61 113.026 168.61" fill="#FF94A9"/>
<path d="M146.26 190.295L135.109 144.534C134.927 143.98 134.584 143.494 134.123 143.136C133.663 142.779 133.106 142.568 132.524 142.53L106.487 141.379C105.298 141.379 102.611 143.435 102.882 144.483L115.933 188.95C116.115 189.504 116.458 189.991 116.919 190.348C117.379 190.705 117.936 190.916 118.517 190.954L143.482 193.863C144.684 193.928 146.518 191.355 146.26 190.295Z" fill="#90A6FF"/>
<path d="M142.694 193.98L116.657 192.829C116.076 192.789 115.52 192.577 115.059 192.22C114.599 191.864 114.256 191.378 114.072 190.825L102.895 145.052C102.637 144.004 103.399 143.19 104.601 143.241L130.638 144.392C131.219 144.432 131.775 144.644 132.235 145C132.695 145.357 133.039 145.843 133.222 146.396L144.373 192.169C144.645 193.217 143.882 194.031 142.694 193.98Z" fill="#C7DDFF"/>
<path d="M110.868 156.249C110.252 156.216 109.66 155.999 109.169 155.625C108.679 155.252 108.311 154.739 108.115 154.154L106.823 148.84C106.565 147.741 107.353 146.9 108.606 146.952C109.223 146.983 109.815 147.2 110.306 147.574C110.797 147.947 111.164 148.461 111.359 149.047L112.651 154.348C112.922 155.447 112.121 156.301 110.868 156.249Z" fill="#4A0945"/>
<path d="M103.748 163.632C110.596 164.55 119.977 162.688 122.265 163.775C124.552 164.861 125.908 178.968 121.502 180.584C117.096 182.2 110.415 182.886 107.082 179.821C103.748 176.757 100.311 166.063 103.748 163.632Z" fill="#FF94A9"/>
<path d="M215.856 161.033L197.288 180.429L155.719 170.731C155.719 170.731 140.071 155.641 138.081 157.801C136.091 159.96 140.807 169.606 140.807 169.606C140.807 169.606 120.985 167.356 119.693 168.08C118.401 168.804 124.784 183.998 131.865 185.73C138.946 187.463 154.724 187.346 154.724 187.346L197.533 201.389C199.871 202.156 202.372 202.289 204.778 201.773C207.184 201.258 209.411 200.112 211.23 198.454L235.484 176.278C235.484 176.278 235.729 161.822 215.856 161.033Z" fill="#FF94A9"/>
<path d="M215.856 161.033L232.745 136.996" stroke="#6D38C9" stroke-width="1.08" stroke-linecap="round" stroke-linejoin="round"/>
<path d="M167.852 134.94L172.116 120.846" stroke="#6D38C9" stroke-width="1.08" stroke-linecap="round" stroke-linejoin="round"/>
<path d="M195.737 62.2591C185.594 55.044 187.648 48.3978 191.654 48.3978C193.933 48.4219 196.193 48.8149 198.347 49.5615C198.347 49.5615 193.476 43.8464 197.055 40.8595C200.634 37.8726 230.651 46.5747 235.083 51.5528C239.516 56.531 235.665 65.7761 235.665 65.7761C235.665 65.7761 244.71 70.0431 236.957 78.2667C229.204 86.4904 223.803 92.5934 219.19 91.0677" fill="#4A0945"/>
<path d="M223.144 102.602C222.317 105.912 217.846 107.903 211.592 109.157C205.338 110.411 201.939 106.17 201.771 104.425C201.749 102.698 201.826 100.971 202.004 99.2527C202.198 96.7571 202.43 93.7832 202.521 90.9902L221.619 82.0813L223.144 81.3701C221.774 87.0982 223.144 102.602 223.144 102.602Z" fill="#FF94A9"/>
<path d="M221.774 82.1201C220.572 93.0462 212.936 102.537 201.965 99.2656C202.159 96.7701 202.392 93.7961 202.482 91.0032L221.58 82.0942L221.774 82.1201Z" fill="#D9568E"/>
<path d="M195.039 55.7551C204.33 68.5302 221.8 67.3924 221.8 67.3924C221.8 67.3924 219.681 77.8529 220.857 79.1977C222.033 80.5424 222.976 70.6766 228.842 72.9653C234.709 75.2539 228.842 85.7921 222.859 82.7793C222.859 82.7793 215.184 97.5586 201.758 93.9123C188.333 90.266 191.331 75.5513 195.039 55.7551Z" fill="#FF94A9"/>
<path d="M225.793 80.7235C223.105 80.0641 225.405 75.1894 228.028 76.6375" stroke="#D9568E" stroke-width="0.54" stroke-linecap="round" stroke-linejoin="round"/>
<path d="M204.976 72.8879C204.821 73.069 202.534 75.9783 200.88 78.06C200.681 78.3157 200.545 78.6148 200.484 78.9329C200.423 79.251 200.437 79.579 200.527 79.8904C200.616 80.2017 200.778 80.4875 200.999 80.7245C201.22 80.9614 201.493 81.1428 201.797 81.2538L205.26 82.5468" stroke="#D9568E" stroke-width="0.54" stroke-linecap="round" stroke-linejoin="round"/>
<path d="M214.758 78.2281C214.758 78.571 214.622 78.8999 214.379 79.1424C214.137 79.3849 213.808 79.5211 213.466 79.5211C213.123 79.5211 212.794 79.3849 212.552 79.1424C212.309 78.8999 212.173 78.571 212.173 78.2281C212.173 77.8852 212.309 77.5563 212.552 77.3138C212.794 77.0713 213.123 76.9351 213.466 76.9351C213.808 76.9351 214.137 77.0713 214.379 77.3138C214.622 77.5563 214.758 77.8852 214.758 78.2281Z" fill="#4A0945"/>
<path d="M198.606 73.3792C198.606 73.6349 198.53 73.8849 198.388 74.0976C198.246 74.3102 198.044 74.4759 197.808 74.5738C197.572 74.6717 197.312 74.6973 197.061 74.6474C196.811 74.5975 196.58 74.4743 196.4 74.2935C196.219 74.1127 196.096 73.8823 196.046 73.6315C195.996 73.3806 196.022 73.1206 196.12 72.8844C196.217 72.6481 196.383 72.4462 196.596 72.3041C196.808 72.162 197.058 72.0862 197.313 72.0862C197.656 72.0862 197.985 72.2224 198.227 72.4649C198.469 72.7074 198.606 73.0363 198.606 73.3792Z" fill="#4A0945"/>
<path d="M212.135 72.8877C212.135 72.8877 215.766 71.724 217.381 74.879" stroke="#4A0945" stroke-width="0.54" stroke-miterlimit="10" stroke-linecap="round"/>
<path d="M195.931 68.7244C195.931 68.7244 199.562 67.5607 201.177 70.7156" stroke="#4A0945" stroke-width="0.54" stroke-miterlimit="10" stroke-linecap="round"/>
<path d="M204.743 86.5293C205.554 86.9449 206.461 87.1354 207.37 87.0808C208.279 87.0262 209.157 86.7286 209.912 86.219" stroke="#D9568E" stroke-width="0.54" stroke-linecap="round" stroke-linejoin="round"/>
<path d="M106.083 99.8942L92.0225 85.8333H47.3333C45.2558 85.8333 43.2634 85.008 41.7943 83.539C40.3253 82.07 39.5 80.0775 39.5 78V42.75C39.5 40.6725 40.3253 38.68 41.7943 37.211C43.2634 35.742 45.2558 34.9167 47.3333 34.9167H98.25C100.328 34.9167 102.32 35.742 103.789 37.211C105.258 38.68 106.083 40.6725 106.083 42.75V99.8942ZM106.083 105.417H110V42.75C110 39.6337 108.762 36.645 106.559 34.4415C104.355 32.2379 101.366 31 98.25 31H47.3333C44.217 31 41.2284 32.2379 39.0248 34.4415C36.8213 36.645 35.5833 39.6337 35.5833 42.75V78C35.5833 81.1163 36.8213 84.1049 39.0248 86.3085C41.2284 88.5121 44.217 89.75 47.3333 89.75H90.4167L106.083 105.417Z" fill="#8962F4"/>
<circle cx="84" cy="60" r="3" fill="#8962F4"/>
<circle cx="73" cy="60" r="3" fill="#8962F4"/>
<circle cx="62" cy="60" r="3" fill="#8962F4"/>
<path d="M447.917 108.894L461.978 94.8333H506.667C508.744 94.8333 510.737 94.008 512.206 92.539C513.675 91.07 514.5 89.0775 514.5 87V51.75C514.5 49.6725 513.675 47.68 512.206 46.211C510.737 44.742 508.744 43.9167 506.667 43.9167H455.75C453.672 43.9167 451.68 44.742 450.211 46.211C448.742 47.68 447.917 49.6725 447.917 51.75V108.894ZM447.917 114.417H444V51.75C444 48.6337 445.238 45.645 447.442 43.4415C449.645 41.2379 452.634 40 455.75 40H506.667C509.783 40 512.772 41.2379 514.975 43.4415C517.179 45.645 518.417 48.6337 518.417 51.75V87C518.417 90.1163 517.179 93.1049 514.975 95.3085C512.772 97.5121 509.783 98.75 506.667 98.75H463.583L447.917 114.417Z" fill="#8962F4"/>
<circle cx="3" cy="3" r="3" transform="matrix(-1 0 0 1 473 66)" fill="#8962F4"/>
<circle cx="3" cy="3" r="3" transform="matrix(-1 0 0 1 484 66)" fill="#8962F4"/>
<circle cx="3" cy="3" r="3" transform="matrix(-1 0 0 1 495 66)" fill="#8962F4"/>
</g>
<defs>
<clipPath id="clip0_56_1129">
<rect width="575" height="426" fill="white"/>
</clipPath>
</defs>
</svg>
